<?xml version="1.0" standalone="no"?>
<!DOCTYPE svg PUBLIC "-//W3C//DTD SVG 20010904//EN"
 "http://www.w3.org/TR/2001/REC-SVG-20010904/DTD/svg10.dtd">
<svg version="1.0" xmlns="http://www.w3.org/2000/svg"
 width="700.000000pt" height="700.000000pt" viewBox="0 0 700.000000 700.000000"
 preserveAspectRatio="xMidYMid meet">
<metadata>
Created by potrace 1.11, written by Peter Selinger 2001-2013
</metadata>
<g transform="translate(0.000000,700.000000) scale(0.100000,-0.100000)"
fill="#000000" stroke="none">
<path d="M2692 6988 c-54 -18 -119 -83 -141 -141 -36 -97 -14 -190 66 -272
l39 -40 -1 -130 0 -129 -285 -2 c-157 -1 -294 -4 -305 -7 -90 -23 -118 -33
-176 -64 -156 -81 -276 -244 -308 -418 -7 -38 -11 -363 -11 -966 -1 -782 1
-917 15 -974 15 -67 64 -176 92 -207 15 -17 13 -18 -30 -18 -45 0 -59 7 -111
55 -42 39 -158 69 -240 63 -188 -15 -329 -170 -328 -358 0 -75 17 -134 57
-194 40 -63 66 -87 131 -123 l50 -28 0 -561 0 -561 -46 -24 c-96 -50 -172
-156 -187 -261 -5 -29 -8 -144 -7 -254 0 -172 3 -206 17 -228 38 -58 107 -75
166 -40 48 28 60 72 59 214 l-1 125 121 3 122 3 0 -136 c0 -149 8 -178 56
-210 55 -36 139 -12 168 49 23 49 24 437 0 516 -28 93 -98 178 -181 220 l-43
21 0 563 0 562 43 22 c24 12 58 35 74 51 l31 29 286 0 c157 -1 286 -3 286 -7
1 -3 1 -313 2 -689 0 -706 1 -721 41 -798 30 -57 100 -125 160 -156 49 -24 78
-31 142 -35 72 -5 82 -8 99 -32 44 -60 130 -134 189 -162 34 -16 67 -29 73
-29 7 0 14 -6 16 -12 3 -7 4 -175 4 -373 l-1 -360 -30 -2 c-16 -1 -50 -4 -75
-6 -50 -5 -612 -188 -673 -219 -62 -31 -83 -107 -52 -186 30 -73 20 -72 593
-72 485 0 508 1 539 20 52 31 61 60 62 202 1 70 -1 143 -5 162 -7 42 -47 85
-86 93 -23 5 -28 11 -29 37 -4 241 1 700 7 705 5 5 29 16 53 25 80 31 177 110
219 179 15 25 21 27 82 27 61 0 67 -2 83 -27 50 -82 151 -158 260 -196 9 -4
17 -17 18 -29 1 -30 1 -608 0 -670 -1 -37 -5 -48 -17 -48 -29 0 -73 -34 -89
-67 -13 -27 -16 -63 -13 -188 l3 -155 33 -32 32 -33 520 -3 c568 -3 559 -4
597 55 24 36 26 119 4 156 -23 41 -52 53 -377 160 -315 104 -324 106 -399 108
l-51 2 0 368 0 368 64 27 c79 33 150 88 198 153 l36 48 83 5 c69 5 93 11 145
39 62 33 128 98 158 154 37 72 40 116 40 786 1 360 1 666 1 680 l1 26 286 0
286 1 26 -25 c14 -13 48 -36 74 -51 l48 -27 0 -562 0 -562 -31 -15 c-93 -46
-156 -119 -189 -216 -18 -52 -20 -85 -20 -281 0 -205 2 -224 20 -254 34 -56
113 -73 167 -38 45 30 53 62 53 208 l0 135 123 0 122 0 -1 -132 c0 -72 4 -144
9 -158 15 -40 66 -70 116 -70 36 0 49 6 77 34 19 19 35 45 35 57 7 139 2 433
-7 469 -24 99 -84 179 -170 230 l-60 34 0 563 0 562 29 12 c84 35 172 138 198
233 45 164 -34 342 -186 417 -136 66 -293 45 -409 -56 -22 -19 -40 -25 -74
-25 -42 0 -44 1 -30 18 29 32 78 142 94 208 13 57 15 191 14 974 0 570 -4 928
-10 963 -43 231 -223 420 -452 474 -62 15 -122 18 -346 18 -172 0 -273 4 -275
10 -2 6 -3 67 -2 136 l1 126 36 32 c51 45 81 111 81 180 1 168 -162 281 -326
225 -85 -29 -157 -133 -157 -227 0 -54 34 -128 79 -175 l46 -47 -1 -120 c-1
-66 -2 -124 -3 -130 -1 -12 -1185 -14 -1197 -3 -4 4 -7 63 -8 130 l-2 123 42
45 c59 64 77 104 77 175 1 97 -44 174 -128 217 -46 24 -145 32 -193 16z"/>
</g>
</svg>
