<?xml version="1.0" standalone="no"?>
<!DOCTYPE svg PUBLIC "-//W3C//DTD SVG 20010904//EN"
 "http://www.w3.org/TR/2001/REC-SVG-20010904/DTD/svg10.dtd">
<svg version="1.0" xmlns="http://www.w3.org/2000/svg"
 width="700.000000pt" height="700.000000pt" viewBox="0 0 700.000000 700.000000"
 preserveAspectRatio="xMidYMid meet">
<metadata>
Created by potrace 1.11, written by Peter Selinger 2001-2013
</metadata>
<g transform="translate(0.000000,700.000000) scale(0.100000,-0.100000)"
fill="#000000" stroke="none">
<path d="M6792 6993 c-13 -3 -161 -142 -353 -334 -181 -181 -338 -329 -347
-329 -9 0 -39 7 -67 16 -39 12 -99 16 -266 16 -198 0 -221 -1 -274 -21 -118
-44 -252 -159 -323 -276 -20 -33 -60 -87 -90 -120 -160 -178 -271 -415 -290
-622 -8 -78 5 -200 26 -254 9 -24 0 -36 -169 -207 -98 -100 -180 -182 -181
-182 -2 0 -3 60 -4 133 -2 370 -166 716 -402 850 l-44 25 215 215 c228 229
245 253 232 325 -19 106 -131 166 -222 119 -16 -9 -167 -153 -334 -320 -254
-253 -313 -308 -360 -329 -105 -48 -171 -124 -264 -303 -83 -160 -85 -176 -85
-485 0 -146 1 -274 4 -285 2 -11 7 -42 10 -70 24 -180 110 -390 211 -514 43
-54 130 -131 171 -153 24 -13 43 -26 42 -30 -4 -10 -431 -442 -446 -452 -11
-7 -12 2 -7 45 33 244 -8 597 -94 821 -76 195 -161 319 -282 409 l-66 50 204
202 c112 111 213 217 225 236 59 93 -2 220 -113 238 -74 11 -89 -1 -420 -331
-201 -200 -329 -321 -357 -335 -87 -44 -172 -147 -235 -283 -33 -71 -103 -304
-115 -378 -15 -102 -6 -600 13 -710 3 -14 7 -41 10 -60 16 -96 76 -282 123
-375 67 -136 155 -245 242 -303 l57 -39 -255 -258 c-193 -196 -253 -252 -248
-230 7 27 17 80 30 159 32 186 23 480 -20 681 -9 39 -17 80 -20 92 -10 51 -69
205 -114 299 -81 168 -199 308 -328 391 -62 40 -171 83 -210 83 -23 0 -3 24
170 198 122 122 203 210 211 232 27 66 0 145 -63 187 -39 27 -116 31 -158 9
-15 -8 -178 -167 -363 -353 -273 -274 -339 -346 -349 -378 -7 -22 -25 -53 -40
-70 -101 -111 -244 -403 -265 -542 -3 -21 -8 -50 -11 -63 -13 -51 -10 -595 3
-710 28 -247 85 -429 204 -650 26 -48 92 -135 143 -188 92 -97 183 -154 293
-187 l73 -21 -515 -518 c-442 -445 -515 -522 -522 -554 -11 -57 -7 -87 21
-130 42 -67 145 -91 209 -49 13 8 249 240 526 516 276 275 506 501 511 501 4
0 10 -19 13 -42 3 -23 24 -79 47 -125 33 -66 60 -103 128 -172 157 -159 351
-260 631 -330 249 -63 582 -69 836 -14 39 8 79 16 90 19 135 27 370 133 488
219 73 53 81 57 110 48 20 -5 49 -6 77 0 41 8 69 33 383 346 186 185 347 353
358 373 61 118 -42 248 -178 223 -32 -6 -69 -37 -240 -208 -112 -111 -203
-199 -204 -197 0 3 -3 18 -5 33 -9 56 -47 139 -95 211 -112 169 -311 304 -573
391 -217 72 -376 92 -731 94 -148 0 -271 1 -273 1 -3 0 423 423 444 441 8 6
19 -3 36 -28 117 -177 380 -323 678 -378 41 -8 91 -17 110 -21 19 -3 118 -8
220 -9 274 -5 459 26 675 112 103 41 203 99 277 160 29 24 59 43 66 43 7 0 25
6 40 14 35 19 692 677 710 711 45 86 -16 206 -112 222 -84 13 -94 6 -328 -225
-121 -119 -221 -219 -223 -220 -2 -2 -16 16 -31 40 -58 93 -182 192 -329 262
-73 35 -228 90 -280 99 -17 3 -56 11 -87 17 -31 6 -72 13 -90 16 -26 5 -331
13 -482 14 -25 0 -4 23 200 225 l228 224 28 -48 c102 -176 386 -343 641 -377
23 -3 60 -9 83 -13 68 -13 313 -5 412 13 207 37 404 130 531 251 31 29 66 56
78 59 22 7 682 659 708 700 22 34 27 101 12 139 -31 74 -104 111 -185 94 -39
-8 -66 -30 -261 -225 l-218 -217 -29 49 c-35 59 -132 161 -195 203 -111 76
-288 148 -424 172 -115 20 -139 23 -247 24 -59 1 -108 3 -108 5 0 8 354 352
361 352 4 0 18 -4 32 -9 104 -40 351 -28 462 23 17 8 41 17 55 21 36 11 144
71 230 128 98 65 281 250 348 352 116 175 180 351 187 515 4 87 -3 138 -31
237 -5 19 43 71 321 349 180 180 331 338 336 351 5 14 9 43 9 66 0 106 -92
172 -208 150z"/>
</g>
</svg>
